inDegrees=no
num_controls=7
num_derivatives=13
num_iterations=136
num_multipliers=7
num_parameters=0
num_slacks=7
num_states=26
objective=5.141614
objective_accelerations=0.529575
objective_balance=0.049512
objective_effort=0.280868
objective_height=4.259979
objective_ligament=0.021679
solver_duration=1516.306408
status=Solve_Succeeded
success=true
DataType=double
version=3
OpenSimVersion=4.4-2022-07-23-0e9fedc
endheader
time	/jointset/ground_pelvis/pelvis_tilt/value	/jointset/ground_pelvis/pelvis_tx/value	/jointset/ground_pelvis/pelvis_ty/value	/jointset/hip_l/hip_flexion_l/value	/jointset/hip_l/hip_adduction_l/value	/jointset/hip_l/hip_rotation_l/value	/jointset/back/lumbar_extension/value	/jointset/patellofemoral_l/patellar_flexion_l/value	/jointset/knee_l/knee_flexion_l/value	/jointset/knee_l/knee_adduction_l/value	/jointset/knee_l/knee_rotation_l/value	/jointset/ankle_l/ankle_angle_l/value	/jointset/subtalar_l/subtalar_angle_l/value	/jointset/ground_pelvis/pelvis_tilt/speed	/jointset/ground_pelvis/pelvis_tx/speed	/jointset/ground_pelvis/pelvis_ty/speed	/jointset/hip_l/hip_flexion_l/speed	/jointset/hip_l/hip_adduction_l/speed	/jointset/hip_l/hip_rotation_l/speed	/jointset/back/lumbar_extension/speed	/jointset/patellofemoral_l/patellar_flexion_l/speed	/jointset/knee_l/knee_flexion_l/speed	/jointset/knee_l/knee_adduction_l/speed	/jointset/knee_l/knee_rotation_l/speed	/jointset/ankle_l/ankle_angle_l/speed	/jointset/subtalar_l/subtalar_angle_l/speed	/forceset/tau_hip_flexion_l	/forceset/tau_hip_adduction_l	/forceset/tau_hip_rotation_l	/forceset/tau_knee_flexion_l	/forceset/tau_ankle_angle_l	/forceset/tau_subtalar_angle_l	/forceset/tau_lumbar_extension	lambda_cid13_p0	lambda_cid13_p1	lambda_cid13_p2	lambda_cid13_p3	lambda_cid13_p4	lambda_cid13_p5	lambda_cid14_p0	/jointset/ground_pelvis/pelvis_tilt/accel	/jointset/ground_pelvis/pelvis_tx/accel	/jointset/ground_pelvis/pelvis_ty/accel	/jointset/hip_l/hip_flexion_l/accel	/jointset/hip_l/hip_adduction_l/accel	/jointset/hip_l/hip_rotation_l/accel	/jointset/back/lumbar_extension/accel	/jointset/patellofemoral_l/patellar_flexion_l/accel	/jointset/knee_l/knee_flexion_l/accel	/jointset/knee_l/knee_adduction_l/accel	/jointset/knee_l/knee_rotation_l/accel	/jointset/ankle_l/ankle_angle_l/accel	/jointset/subtalar_l/subtalar_angle_l/accel	gamma_cid13_p0	gamma_cid13_p1	gamma_cid13_p2	gamma_cid13_p3	gamma_cid13_p4	gamma_cid13_p5	gamma_cid14_p0
0.5	-0.3979364562748697	-0.0671428617265885	0.7800029483393582	1.070767614174196	-0.4290455212154193	-0.2919789976444564	-0.2538071793102746	0.6148036314559271	0.614803631455962	-0.1744310195798063	-0.1651571171886665	-0.02616088255160061	-0.09179995009724473	-0.9460219254949591	-0.3082932308189391	-0.4327866931647515	2.386729801297459	-0.222794249081125	0.6140185493218708	-0.1191117798530661	1.469556705742969	1.469556705742997	-0.001617799644452305	-0.05699750037153911	0.1197236355858484	-0.1846909850261748	-0.1964606430387406	0.01728485285863697	-0.00436843095127708	-0.1707592093181486	0.09455305714346764	0.05080039751925836	0.1845563879134696	-3.693662146357746	-24.61614835667157	7.244047212430393	-5.984516147658096	-527.3511610887883	-65.50072794378782	-34.13382339026494	0.7236774963327802	0.5707379545317292	-0.2916005607567537	-1.37825278828331	0.5562159842676713	-0.06958022123316519	1.071518078830105	-0.9603030435497568	-0.9603030435497548	0.01862886770531236	0.1652852139065778	-0.08986036662837009	0.5352323582863712	2.399910877649003e-08	-7.341210117792271e-07	-1.704821087479395e-07	-2.328934476977216e-07	-1.111283368806579e-07	1.231455162837537e-07	-9.893659545333585e-08
0.51	-0.4073584946328383	-0.07019689030079247	0.7756614027826874	1.094561798319626	-0.4312459965271712	-0.2858445575392604	-0.2549457803134281	0.6294493995987008	0.629449399598627	-0.1744467530958359	-0.1657204370348295	-0.02496850624999133	-0.09362061618037269	-0.9382525125017982	-0.3024823046318316	-0.435433253205522	2.371781357981996	-0.2172802378244686	0.6127895821503381	-0.1086490528551978	1.459399201717432	1.459399201717463	-0.001526886277126586	-0.05565716183868735	0.1187242581846495	-0.1794329222310969	-0.2026485275276103	0.01827778061465756	-0.004200378386768709	-0.1721084865198251	0.09521021707429358	0.051932254566725	0.1891303648613044	-3.664251461210224	-25.0598812514178	7.254271953615318	-6.157059772948329	-530.3640017007192	-65.24397170869214	-33.53595399386294	0.8235758307711109	0.5907499903444027	-0.2378294072265945	-1.601973002056731	0.5522197388268282	-0.1616158460246993	1.027555199014051	-1.073113081591965	-1.073113081591408	0.004476080588543987	0.1198155052004123	-0.1090937019156049	0.5226261958866297	2.399445421495304e-08	-7.086132008783682e-07	-1.830076780403429e-07	-2.290912192620596e-07	-1.008181551386016e-07	1.275959907805349e-07	-9.562549023486199e-08
0.52	-0.4166988383348827	-0.07319191360521679	0.7712960624893103	1.118196731452128	-0.4333906865178503	-0.2797248192819681	-0.2559809730088538	0.6439876649013202	0.6439876649011271	-0.1744615467763416	-0.1662700720292168	-0.02378694717740314	-0.09538839504439599	-0.9296829943100836	-0.2964921768630083	-0.4375456405059102	2.354879598711373	-0.2116371848693379	0.611078179742358	-0.09843011830735514	1.448056137710444	1.448056137710478	-0.001429832536101794	-0.05426053001679428	0.117560189781453	-0.1741135412052922	-0.2088364120164639	0.01927070837070051	-0.004032325822238318	-0.1734577637214975	0.09586737700512879	0.05306411161421956	0.193704341809141	-3.643853523785766	-25.50252278686318	7.264878604665449	-6.310074242078648	-533.508583442031	-65.0126421087673	-32.92728630365514	0.8836985360436388	0.6065782708748465	-0.1847660126803015	-1.76891597931503	0.5820243239626368	-0.1660672685227199	1.02275958882515	-1.197415039840085	-1.197415039840076	0.01985694244545706	0.1765438717148544	-0.1227985670279203	0.5474960044318811	1.716326093332605e-08	-6.746927052798669e-07	-1.68420661418902e-07	-2.184777204923477e-07	-9.816624436819044e-08	1.32352151269701e-07	-9.522356919198101e-08
0.53	-0.4259496246807511	-0.07612620084831154	0.7669122888205047	1.141653075597325	-0.4354783410494672	-0.2736244966842096	-0.2569152078741774	0.6584066266911162	0.6584066266909971	-0.1744753378268077	-0.166805356782973	-0.02261784800056058	-0.0971027115043754	-0.9203466821194227	-0.2903404568061099	-0.4391174027898076	2.336072412614862	-0.2058774675059139	0.6089042851515878	-0.08846644877394071	1.435545501363449	1.435545501363396	-0.001325306867806585	-0.05278878521610769	0.1162341940769246	-0.1687437464527425	-0.2149413236635244	0.02018460464056172	-0.00388905106469444	-0.1747503804310593	0.09651708972117498	0.05409574238624352	0.1981771526621199	-3.623876232323374	-25.90333531512954	7.270841704162875	-6.434669940562211	-536.5862880506545	-64.70796653609973	-32.31030221521781	0.9777503416728438	0.6231485349077015	-0.1296471210317752	-1.984128882710317	0.575509873677869	-0.2554343406348785	0.9757315334453148	-1.306476762644231	-1.306476762657334	0.006075400942732991	0.1336478488537686	-0.1413303279856832	0.532744392938262	1.132617195094514e-08	-6.358781447119321e-07	-1.542986816740803e-07	-2.068910358611996e-07	-9.318669438164389e-08	1.351782065143501e-07	-9.356941643459767e-08
0.54	-0.4351032173484941	-0.07899823495847541	0.7625155443719021	1.164911846089991	-0.4375078855212068	-0.2675483897896253	-0.2577512938645949	0.6726947643513435	0.6726947643512846	-0.1744880186162079	-0.1673256924758168	-0.02146277483192721	-0.0987631253803747	-0.9102442586849157	-0.2840415502768325	-0.4401397964652456	2.315364868202705	-0.2000151728966782	0.6062350391095951	-0.07880034332667887	1.421891311795848	1.421891311795706	-0.001207780322664955	-0.05127071783108831	0.1147549881395809	-0.1633330244093232	-0.2210462353104836	0.02109850091044024	-0.003745776307021162	-0.1760429971406398	0.09716680243721369	0.05512737315828091	0.2026499635151975	-3.612027276824069	-26.30325121688497	7.277263300748221	-6.54549203550602	-539.7873991542048	-64.42803624245103	-31.68742332938239	1.036920784813007	0.6360155653506231	-0.07489229098839666	-2.14898764244448	0.6025397731251039	-0.2651375587673835	0.9632467715948256	-1.426125683961557	-1.426125683961581	0.0224571178150501	0.1858083885814249	-0.1534406135909809	0.5556814626059663	6.588943044325841e-09	-5.916488739650498e-07	-1.406912108140289e-07	-1.942276349578243e-07	-8.5631883985756e-08	1.358688261693209e-07	-9.052981582287129e-08
0.55	-0.4441521346332296	-0.08180662247029555	0.7581113162590745	1.187954349683531	-0.439478314202515	-0.2615013051056606	-0.2584922865006389	0.6868407497651446	0.6868407497650844	-0.1744994171742481	-0.1678304855951144	-0.02032325225014971	-0.1003692432069125	-0.8994176826840223	-0.2776178696565255	-0.4406137816313434	2.292833266774582	-0.1940594566213207	0.603097517366201	-0.06946747658449703	1.407126230873915	1.407126230873779	-0.001067702667102891	-0.04968390287977044	0.1131251821003873	-0.1578891351562693	-0.2269127790437052	0.0217970436367833	-0.003634289771460171	-0.1773697243138441	0.09787564732073459	0.05608915495567727	0.2068882714256108	-3.573250541462229	-26.67967120968459	7.282365903872901	-6.633072002817112	-542.8168336820493	-64.12995218124699	-31.06089269456458	1.123763606620922	0.6482192108567549	-0.01986126122861122	-2.350623847114469	0.5938628435108979	-0.3507859397631387	0.9079127205169861	-1.528612535782979	-1.528612535782057	0.01029940307598052	0.1457309155702244	-0.1714144696339936	0.5390588888790111	-3.300455151523727e-09	-5.384316481792765e-07	-1.069783276776462e-07	-1.731452617784234e-07	-8.423294734988044e-08	1.375055849507936e-07	-8.879143337533408e-08
0.5600000000000001	-0.4530891386381785	-0.0845502381958156	0.7537051063682235	1.210762461771974	-0.441388830663303	-0.2554881409306671	-0.2591420292502613	0.7008337017218397	0.700833701721763	-0.1745093116930183	-0.1683192879914727	-0.01920076050287422	-0.1019208588944748	-0.8878616027273694	-0.2710871930168107	-0.4405361520698398	2.268486567181728	-0.1880327287951814	0.5994509373173058	-0.06055036604281391	1.391284620373026	1.391284620372896	-0.0009069724655770764	-0.04807257324191832	0.1113488212391757	-0.1524325966142605	-0.2327793227768708	0.02249558636313968	-0.003522803235822236	-0.17869645148706	0.09858449220425218	0.05705093675308527	0.2111265793360775	-3.541956084640032	-27.05540125162445	7.288066814457849	-6.712043124545949	-545.9641265950922	-63.85570345484847	-30.43301833805157	1.1828215759651	0.6574147692321483	0.0354306545319009	-2.512007275390828	0.616742083281545	-0.3669492198677332	0.8800955314952824	-1.641431599752843	-1.641431599752831	0.02658762700806269	0.1907113258882853	-0.1827515779946072	0.5582113203971004	-1.937245649444941e-08	-4.744288763468343e-07	-4.913894980966663e-08	-1.419601218677921e-07	-9.02210592260194e-08	1.402777106840684e-07	-8.861451272482386e-08
0.5700000000000001	-0.4619071453853885	-0.08722809339193664	0.7493024291216057	1.2333183028599	-0.4432387430053128	-0.2495136296037538	-0.2597047102337034	0.7146628179720317	0.7146628179719264	-0.1745176412398541	-0.1687915149065977	-0.01809682181218249	-0.1034178934605057	-0.8756228830358246	-0.2644720726473175	-0.4399072950245622	2.242391099483258	-0.1819429684491259	0.595368079738718	-0.05207286726535587	1.374368516570519	1.374368516570435	-0.0007551626545096665	-0.04636902133730551	0.1094155805121433	-0.1469767559082799	-0.238421631909465	0.02316294046552748	-0.003435244161518346	-0.1800342626089027	0.0993432865487682	0.05780636920968248	0.2151444430017725	-3.488358088017441	-27.34952545435872	7.285448147649705	-6.742290256847542	-548.9403638891051	-63.43695409122369	-29.81066728747651	1.26193109869153	0.6653018407892407	0.09039484231404689	-2.701895635478709	0.6061858714581488	-0.4415094957583822	0.8185215582462638	-1.742199032222499	-1.742199032215577	0.009955510616789263	0.1607727428620984	-0.2021211317791414	0.5389762156506327	-2.655676700673693e-08	-4.244586691012273e-07	-2.250308836945e-08	-1.227385828006603e-07	-8.717326805249598e-08	1.392819922701784e-07	-8.554851110581783e-08
0.58	-0.470599258149096	-0.08983944915036664	0.7449087967679974	1.255604473447169	-0.4450275391716121	-0.2435824579464185	-0.2601852273278917	0.7283176733318687	0.7283176733317076	-0.1745243571181262	-0.1692465871786437	-0.01701291769110573	-0.1048604284654862	-0.8626828060265636	-0.2577873054785986	-0.4387271734678362	2.214552467048641	-0.1758094936554573	0.5907830034039769	-0.04411758819287589	1.356432442299097	1.356432442299058	-0.0005842387450213711	-0.04464164462811709	0.1073419073162467	-0.1415326844042187	-0.2440639410419985	0.02383029456792449	-0.003347685087234053	-0.1813720737307521	0.1001020808932763	0.05856180166628603	0.2191623066675319	-3.439350065636734	-27.64349594826012	7.28354738589661	-6.781937115561106	-552.0015512387348	-63.03751683843526	-29.196422524483	1.323093039508556	0.6713441290772896	0.145683556821584	-2.860640222620181	0.6254849728042375	-0.467392971098489	0.7756515904998804	-1.845425693535943	-1.845425693536001	0.03041044669243457	0.1954762868034181	-0.2108380717674435	0.5558574800133124	-2.216641039075187e-08	-3.927634296896381e-07	-3.650436460259756e-08	-1.190975471576203e-07	-7.235778918638957e-08	1.333793140367251e-07	-7.871998543481743e-08
